<?xml version="1.0" encoding="UTF-8" standalone="no"?>
<!DOCTYPE svg PUBLIC "-//W3C//DTD SVG 1.1//EN" "http://www.w3.org/Graphics/SVG/1.1/DTD/svg11.dtd">
<svg version="1.1" xmlns="http://www.w3.org/2000/svg" xmlns:xlink="http://www.w3.org/1999/xlink" preserveAspectRatio="xMidYMid meet" viewBox="0 0 640 640" width="800" height="800"><defs><path d="M146.33 89.5C146.33 178.15 78.74 250.11 -4.52 250.11C-87.77 250.11 -155.36 178.15 -155.36 89.5C-155.36 0.86 -87.77 -71.1 -4.52 -71.1C78.74 -71.1 146.33 0.86 146.33 89.5Z" id="bdM2zQSal"></path><path d="M188.05 635.2C188.05 716.35 101.77 782.23 -4.5 782.23C-110.77 782.23 -197.05 716.35 -197.05 635.2C-197.05 554.05 -110.77 488.16 -4.5 488.16C101.77 488.16 188.05 554.05 188.05 635.2Z" id="b10hwKlesW"></path><path d="M761.95 550.04C788.3 608.49 730.47 691.65 632.9 735.63C535.33 779.61 434.72 767.86 408.37 709.41C382.03 650.96 439.86 567.8 537.43 523.82C635 479.84 735.61 491.59 761.95 550.04Z" id="c1tO3EtF31"></path><path d="M761.1 89.5C761.1 162.2 705.2 221.22 636.35 221.22C567.5 221.22 511.6 162.2 511.6 89.5C511.6 16.81 567.5 -42.21 636.35 -42.21C705.2 -42.21 761.1 16.81 761.1 89.5Z" id="g2npHiqZq"></path></defs><g><g><g><use xlink:href="#bdM2zQSal" opacity="1" fill="#00878e" fill-opacity="1"></use></g><g><use xlink:href="#b10hwKlesW" opacity="1" fill="#fde9e8" fill-opacity="1"></use></g><g><use xlink:href="#c1tO3EtF31" opacity="1" fill="#0a2d4d" fill-opacity="1"></use></g><g><use xlink:href="#g2npHiqZq" opacity="1" fill="#f37b84" fill-opacity="1"></use></g></g></g></svg>